<?xml version="1.0" standalone="no"?>
<!DOCTYPE svg PUBLIC "-//W3C//DTD SVG 20010904//EN"
 "http://www.w3.org/TR/2001/REC-SVG-20010904/DTD/svg10.dtd">
<svg version="1.0" xmlns="http://www.w3.org/2000/svg"
 width="700.000000pt" height="700.000000pt" viewBox="0 0 700.000000 700.000000"
 preserveAspectRatio="xMidYMid meet">
<metadata>
Created by potrace 1.11, written by Peter Selinger 2001-2013
</metadata>
<g transform="translate(0.000000,700.000000) scale(0.100000,-0.100000)"
fill="#000000" stroke="none">
<path d="M3225 6994 c-246 -25 -498 -70 -680 -123 -1007 -289 -1826 -1002
-2249 -1956 -102 -228 -176 -461 -226 -705 -56 -278 -64 -367 -64 -710 0 -343
8 -432 64 -710 224 -1101 978 -2034 2015 -2494 301 -134 618 -223 975 -273
179 -25 701 -25 880 0 734 103 1343 382 1890 863 556 490 951 1173 1100 1904
56 278 64 367 64 710 0 343 -8 432 -64 710 -224 1101 -978 2034 -2015 2494
-300 134 -622 224 -970 272 -114 15 -617 28 -720 18z m575 -442 c795 -189
1437 -1019 1665 -2157 64 -316 85 -540 85 -895 0 -355 -21 -579 -85 -895 -230
-1147 -883 -1985 -1685 -2161 -118 -26 -519 -26 -695 -1 -409 61 -777 186
-1110 377 -766 439 -1305 1175 -1489 2030 -52 241 -61 335 -61 650 0 232 4
320 18 415 62 412 186 777 377 1110 480 837 1318 1404 2260 1529 178 24 181
24 415 21 178 -3 236 -7 305 -23z"/>
</g>
</svg>
