<?xml version="1.0" standalone="no"?>
<!DOCTYPE svg PUBLIC "-//W3C//DTD SVG 20010904//EN"
 "http://www.w3.org/TR/2001/REC-SVG-20010904/DTD/svg10.dtd">
<svg version="1.0" xmlns="http://www.w3.org/2000/svg"
 width="700.000000pt" height="700.000000pt" viewBox="0 0 700.000000 700.000000"
 preserveAspectRatio="xMidYMid meet">
<metadata>
Created by potrace 1.11, written by Peter Selinger 2001-2013
</metadata>
<g transform="translate(0.000000,700.000000) scale(0.100000,-0.100000)"
fill="#000000" stroke="none">
<path d="M3285 6994 c-203 -20 -276 -28 -375 -45 -610 -105 -1195 -376 -1665
-772 -95 -81 -310 -294 -394 -392 -468 -542 -742 -1176 -833 -1925 -17 -137
-17 -583 0 -720 69 -569 227 -1028 514 -1491 145 -236 311 -440 525 -649 204
-200 371 -332 592 -468 463 -287 922 -445 1491 -514 137 -17 583 -17 720 0
569 69 1028 227 1491 514 360 222 692 528 958 882 323 430 549 960 640 1501
38 223 46 327 46 585 0 258 -8 362 -46 585 -105 627 -382 1216 -800 1700 -84
98 -299 311 -394 392 -518 437 -1148 710 -1845 798 -117 15 -536 28 -625 19z
m463 -429 c208 -40 400 -119 580 -238 535 -354 940 -1021 1126 -1855 76 -336
101 -587 101 -982 -1 -497 -56 -872 -192 -1310 -153 -496 -440 -985 -749
-1280 -371 -353 -754 -507 -1214 -486 -605 28 -1114 190 -1600 510 -182 120
-316 230 -481 395 -509 509 -798 1112 -890 1856 -16 129 -16 521 0 650 66 532
217 952 495 1375 120 182 230 316 395 481 410 410 883 677 1447 817 335 84
752 112 982 67z"/>
</g>
</svg>
