<svg width="2500" height="2031" viewBox="0 0 2500 2031" fill="none" xmlns="http://www.w3.org/2000/svg">
<path d="M1670.17 1.01381V0.563232H1787.32L1830.12 9.1243C1858.66 14.6822 1884.57 21.9659 1907.85 30.9775C1931.13 39.9892 1953.66 50.5035 1975.44 62.5183C1997.22 74.5331 2016.97 86.7754 2034.69 99.2408C2052.26 111.557 2068.03 124.624 2082 138.441C2095.82 152.409 2117.37 156.014 2146.66 149.255C2175.95 142.497 2207.49 133.109 2241.28 121.094C2275.07 109.079 2308.49 95.5618 2341.54 80.5416C2374.58 65.5214 2394.71 55.9849 2401.92 51.9296C2408.97 47.7257 2412.73 45.4728 2413.18 45.1709L2413.63 44.495L2415.88 43.3686L2418.13 42.2421L2420.39 41.1156L2422.64 39.9892L2423.09 39.3133L2423.77 38.8627L2424.44 38.4121L2424.89 37.7363L2427.15 37.0604L2429.4 36.6098L2428.95 39.9892L2428.27 43.3686L2427.15 46.7479L2426.02 50.1273L2424.89 52.3802L2423.77 54.6331L2422.64 58.0125C2421.89 60.2654 2421.14 63.2685 2420.39 67.0241C2419.64 70.7797 2412.5 85.7976 2398.98 112.082C2385.47 138.367 2368.57 165.026 2348.29 192.061C2328.02 219.096 2309.85 239.521 2293.78 253.34C2277.55 267.308 2266.82 277.07 2261.56 282.628C2256.3 288.334 2249.92 293.59 2242.41 298.398L2231.14 305.833L2228.89 306.959L2226.64 308.086L2226.19 308.762L2225.51 309.212L2224.83 309.663L2224.38 310.339L2222.13 311.465L2219.88 312.592L2219.43 313.267L2218.75 313.718L2218.08 314.169L2217.62 314.844L2217.18 315.52L2216.5 315.971L2215.82 316.421L2215.37 317.097H2226.64L2289.72 303.58C2331.77 294.568 2371.95 283.68 2410.25 270.913L2471.08 250.636L2477.84 248.384L2481.22 247.257L2483.47 246.131L2485.72 245.004L2487.97 243.878L2490.23 242.751L2494.73 242.075L2499.24 241.625V246.131L2498.11 246.581L2496.99 247.257L2496.54 247.933L2495.86 248.384L2495.18 248.834L2494.73 249.51L2494.28 250.186L2493.61 250.636L2492.93 251.087L2492.48 251.763L2492.03 252.439L2491.35 252.889L2490.23 255.142L2489.1 257.395L2488.42 257.846C2488.13 258.296 2478.59 271.061 2459.81 296.145C2441.04 321.378 2430.9 334.143 2429.4 334.445C2427.9 334.895 2425.79 337.148 2423.09 341.203C2420.54 345.407 2404.62 362.156 2375.33 391.443C2346.04 420.731 2317.36 446.788 2289.27 469.619C2261.03 492.599 2246.76 520.835 2246.46 554.329C2246.01 587.672 2244.29 625.372 2241.28 667.425C2238.28 709.48 2232.65 754.912 2224.38 803.726C2216.12 852.54 2203.36 907.736 2186.08 969.315C2168.81 1030.89 2147.78 1090.97 2123 1149.55C2098.22 1208.12 2072.31 1260.69 2045.28 1307.25C2018.24 1353.81 1993.46 1393.24 1970.93 1425.53C1948.4 1457.82 1925.5 1488.24 1902.22 1516.77C1878.94 1545.31 1849.5 1577.45 1813.91 1613.2C1778.16 1648.79 1758.63 1668.32 1755.33 1671.77C1751.88 1675.08 1737.16 1687.39 1711.17 1708.72C1685.34 1730.2 1657.55 1751.67 1627.81 1773.15C1598.23 1794.48 1571.04 1812.28 1546.26 1826.55C1521.48 1840.82 1491.59 1857.11 1456.59 1875.44C1421.75 1893.91 1384.05 1911.03 1343.5 1926.8C1302.94 1942.57 1260.14 1957.22 1215.08 1970.73C1170.02 1984.25 1126.47 1994.77 1084.41 2002.28C1042.36 2009.78 994.67 2016.17 941.35 2021.43L861.372 2029.31V2030.44H714.933V2029.31L695.783 2028.18C683.018 2027.43 672.504 2026.68 664.242 2025.93C655.983 2025.18 624.816 2021.05 570.746 2013.54C516.677 2006.03 474.247 1998.52 443.457 1991.01C412.669 1983.5 366.858 1969.23 306.029 1948.21C245.201 1927.18 193.158 1905.93 149.903 1884.45C106.798 1863.12 79.7626 1849.6 68.7977 1843.9C57.9837 1838.34 45.818 1831.43 32.3005 1823.17L12.0243 1810.78L11.576 1810.1L10.8979 1809.65L10.222 1809.2L9.77141 1808.52L7.5185 1807.4L5.26559 1806.27L4.81726 1805.6L4.13913 1805.15L3.46326 1804.69L3.01268 1804.02L2.56435 1803.34L1.88622 1802.89H0.759766V1798.39L3.01268 1798.84L5.26559 1799.51L15.4037 1800.64C22.1624 1801.39 40.562 1802.52 70.6 1804.02C100.64 1805.52 132.555 1805.52 166.349 1804.02C200.142 1802.52 234.689 1799.14 269.983 1793.88C305.279 1788.62 346.958 1779.61 395.019 1766.85C443.083 1754.08 487.24 1738.91 527.493 1721.34C567.595 1703.62 596.13 1690.4 613.103 1681.69C629.924 1673.12 655.607 1657.2 690.151 1633.92L741.968 1599L742.418 1598.33L743.094 1597.88L743.772 1597.43L744.221 1596.75L744.671 1596.08L745.347 1595.62L746.025 1595.17L746.474 1594.5L748.726 1593.82L750.979 1593.37L751.43 1591.12L752.106 1588.87L752.784 1588.42L753.232 1587.74L735.209 1586.61C723.194 1585.86 711.553 1585.11 700.289 1584.36C689.024 1583.61 671.377 1580.23 647.345 1574.22C623.316 1568.21 597.407 1559.2 569.62 1547.19C541.835 1535.17 514.8 1520.9 488.515 1504.38C462.233 1487.86 443.232 1474.12 431.516 1463.15C419.952 1452.34 404.932 1437.02 386.458 1417.19C368.135 1397.22 352.214 1376.72 338.697 1355.69C325.179 1334.66 312.263 1310.4 299.949 1282.92L281.247 1241.92L280.121 1238.54L278.994 1235.16L278.318 1232.91L277.868 1230.65L281.247 1231.1L284.627 1231.78L309.409 1235.16C325.932 1237.41 351.84 1238.16 387.134 1237.41C422.431 1236.66 446.836 1235.16 460.354 1232.91C473.871 1230.65 482.133 1229.15 485.136 1228.4L489.642 1227.27L495.274 1226.15L500.906 1225.02L501.357 1224.34L502.033 1223.89L502.711 1223.44L503.159 1222.77L498.653 1221.64L494.147 1220.51L489.642 1219.39L485.136 1218.26L480.63 1217.14C477.627 1216.39 472.371 1214.88 464.86 1212.63C457.351 1210.38 437.074 1202.12 404.031 1187.85C370.99 1173.58 344.705 1159.69 325.179 1146.17C305.605 1132.61 286.941 1117.79 269.307 1101.79C251.734 1085.57 232.436 1064.69 211.407 1039.16C190.381 1013.62 171.607 983.959 155.084 950.166C138.564 916.372 126.173 884.081 117.911 853.29C109.683 822.681 104.254 791.387 101.692 759.795L97.635 712.483L99.8879 712.934L102.141 713.61L104.394 714.736L106.647 715.863L108.9 716.989L111.152 718.116L146.073 733.886C169.354 744.4 198.266 753.412 232.81 760.921C267.356 768.43 288.006 772.562 294.765 773.312L304.903 774.438H325.179L324.731 773.763L324.053 773.312L323.377 772.861L322.926 772.186L322.478 771.51L321.8 771.059L321.124 770.608L320.673 769.933L318.42 768.806L316.167 767.68L315.719 767.004L315.041 766.553L314.365 766.103L313.915 765.427L311.662 764.3L309.409 763.174L308.96 762.498C308.51 762.196 302.051 757.391 289.583 748.079C277.266 738.617 264.35 726.377 250.833 711.357C237.316 696.337 223.798 680.566 210.281 664.046C196.738 647.487 184.676 629.771 174.234 611.102C163.722 592.329 152.606 568.446 140.891 539.46C129.327 510.622 120.54 481.56 114.532 452.272C108.526 422.984 105.146 394.073 104.394 365.535C103.643 336.997 104.394 312.592 106.647 292.315C108.9 272.039 113.405 249.134 120.164 223.602C126.923 198.069 136.687 171.034 149.452 142.497L168.602 99.6914L169.728 96.312L170.855 92.9326L171.533 92.482L171.981 91.8062L172.432 91.1303L173.108 90.6797L173.786 91.1303L174.234 91.8062L174.685 92.482L175.36 92.9326L176.039 93.3832L176.487 94.0591L176.937 94.7349L177.613 95.1855L178.74 97.4384L179.866 99.6914L180.544 100.142L180.993 100.818L211.407 134.611C231.683 157.141 255.715 182.299 283.5 210.084C311.288 237.869 326.682 252.288 329.685 253.34C332.69 254.541 336.444 257.994 340.949 263.703C345.455 269.261 360.475 282.553 386.008 303.58C411.542 324.606 444.96 349.014 486.262 376.8C527.567 404.585 573.376 431.996 623.69 459.031C674.006 486.066 728.076 510.472 785.9 532.25C843.725 554.029 884.277 568.297 907.557 575.056C930.838 581.814 970.638 590.45 1026.96 600.964C1083.28 611.479 1125.72 618.237 1154.25 621.24C1182.79 624.244 1202.31 625.972 1212.83 626.422L1228.6 626.873L1228.15 623.493L1227.47 620.114L1222.96 591.953C1219.96 573.179 1218.46 546.894 1218.46 513.101C1218.46 479.307 1221.09 448.142 1226.34 419.605C1231.6 391.067 1239.49 362.156 1250 332.868C1260.51 303.58 1270.8 280.073 1280.86 262.352C1291.08 244.779 1304.45 224.728 1320.97 202.199C1337.49 179.67 1358.89 156.39 1385.17 132.359C1411.46 108.327 1441.5 86.9241 1475.29 68.1506C1509.08 49.3771 1540.25 35.1071 1568.79 25.3453C1597.32 15.5834 1621.36 9.19864 1640.88 6.19551C1660.41 3.19238 1670.17 1.4644 1670.17 1.01381V1.01381Z" fill="#282828" stroke="#5DA8DC" stroke-width="1.12646"/>
</svg>
