<svg version="1" xmlns="http://www.w3.org/2000/svg" width="933.333" height="933.333" viewBox="0 0 700.000000 700.000000"><path d="M331 .6C291.3 4 269.7 8.2 240 18 155.1 46 83.7 106.2 41.3 185.5 23.7 218.4 10.7 256.7 5 292.2 1.5 314.4.6 326.2.6 350c0 40.2 5.2 73 17.4 110 25.1 76.2 76.7 142.3 145.1 185.8 38 24.1 85.3 42.2 129.1 49.2 22.2 3.5 34 4.4 57.8 4.4 40.2 0 73-5.2 110-17.4 84.9-28 156.3-88.2 198.7-167.5 17.6-32.9 30.6-71.2 36.3-106.7 3.5-22.2 4.4-34 4.4-57.8 0-40.2-5.2-73-17.4-110-17.4-53-47.4-100.8-87.6-140-56.7-55.2-125.7-88.1-204.9-97.5C376.9 1 340.1-.2 331 .6zm47.2 43.3c19.8 4.3 42.4 14.4 59.9 26.8 57.3 40.9 99.3 119.7 112.9 211.8 3.7 25.3 4.4 35.9 4.4 67.5s-.7 42.2-4.4 67.5c-6.4 43.8-19.9 86.7-38.4 122-33.5 64.2-80.4 104.8-134.9 116.7-8.8 1.9-13 2.2-31.2 2.2-64.9-.2-126.3-20.6-179.5-59.7-47.6-34.9-86.1-85.7-105.9-139.5C47 420.8 41.6 390.7 41.6 350s5.4-70.8 19.5-109.2c26.9-73 85.6-136.6 157.4-170.3 34-16 69.2-25.1 111.5-28.9 11.5-1 38.7.3 48.2 2.3z"/></svg>