<svg width="3304" height="850" viewBox="0 0 3304 850" fill="none" xmlns="http://www.w3.org/2000/svg">
<circle cx="425" cy="425" r="425" fill="black"/>
<path d="M800 425C800 632.107 632.107 800 425 800C217.893 800 50 632.107 50 425C50 217.893 217.893 50 425 50C632.107 50 800 217.893 800 425Z" fill="white"/>
<path fill-rule="evenodd" clip-rule="evenodd" d="M800 425C800 632.107 632.107 800 425 800C563.071 800 675 632.107 675 425C675 217.893 563.071 50 425 50C632.107 50 800 217.893 800 425Z" fill="#5200FF"/>
<path d="M1263.38 580L1230.38 485.95H1077.48L1045.03 580H994.979L1131.38 195H1175.93L1312.33 580H1263.38ZM1215.53 443.6L1166.03 301.15C1159.8 283.183 1155.76 270.167 1153.93 262.1C1149.9 276.4 1145.86 289.417 1141.83 301.15L1091.78 443.6H1215.53ZM1383.38 580V195H1535.18C1577.71 195 1608.51 205.45 1627.58 226.35C1647.01 247.25 1656.73 273.283 1656.73 304.45C1656.73 329.75 1649.21 352.483 1634.18 372.65C1619.51 392.45 1597.14 405.467 1567.08 411.7L1649.58 580H1595.68L1516.48 415H1431.23V580H1383.38ZM1431.23 370.45H1536.28C1561.21 370.45 1579.36 364.217 1590.73 351.75C1602.46 339.283 1608.33 323.883 1608.33 305.55C1608.33 287.95 1602.64 272.55 1591.28 259.35C1580.28 246.15 1561.94 239.55 1536.28 239.55H1431.23V370.45ZM1868.76 240.65V580H1820.91V240.65H1713.66V195H1976.01V240.65H1868.76ZM2059.06 580V195H2287.86V240.1H2106.91V358.35H2226.26V403.45H2106.91V534.35H2299.96V580H2059.06ZM2722.71 580H2674.86V343.5C2674.86 328.467 2675.23 314.35 2675.96 301.15C2672.29 311.417 2666.61 325.9 2658.91 344.6L2553.31 586.6L2451.01 343.5C2442.21 322.233 2436.71 308.3 2434.51 301.7C2435.61 311.6 2436.16 325.533 2436.16 343.5V580H2388.31V195H2433.41L2545.06 454.05L2554.96 479.9C2556.43 475.5 2559.73 466.883 2564.86 454.05L2677.06 195H2722.71V580ZM2830.91 580V195H2878.76V580H2830.91ZM3099.92 586.6C3067.29 586.6 3038.87 578.717 3014.67 562.95C2990.84 546.817 2974.52 526.1 2965.72 500.8L3010.82 484.3C3018.89 501.9 3030.81 515.833 3046.57 526.1C3062.34 536.367 3080.49 541.5 3101.02 541.5C3124.49 541.5 3143.01 536 3156.57 525C3170.14 513.633 3176.92 497.5 3176.92 476.6C3176.92 456.433 3169.22 440.3 3153.82 428.2C3138.79 416.1 3117.52 405.1 3090.02 395.2C3076.82 390.433 3065.82 386.217 3057.02 382.55C3048.59 378.883 3038.69 373.75 3027.32 367.15C3016.32 360.183 3007.52 353.217 3000.92 346.25C2994.32 338.917 2988.64 329.933 2983.87 319.3C2979.47 308.3 2977.27 296.383 2977.27 283.55C2977.27 256.783 2987.91 234.233 3009.17 215.9C3030.44 197.567 3059.22 188.4 3095.52 188.4C3125.22 188.4 3149.97 194.817 3169.77 207.65C3189.57 220.117 3202.41 236.617 3208.27 257.15L3164.27 272C3159.14 260.633 3150.34 251.283 3137.87 243.95C3125.41 236.617 3110.19 232.95 3092.22 232.95C3072.06 232.95 3056.11 237.533 3044.37 246.7C3032.64 255.5 3026.77 267.783 3026.77 283.55C3026.77 291.983 3028.79 299.683 3032.82 306.65C3037.22 313.617 3043.82 319.85 3052.62 325.35C3061.79 330.85 3070.22 335.25 3077.92 338.55C3085.62 341.85 3096.26 346.067 3109.82 351.2C3126.69 357.433 3140.62 363.483 3151.62 369.35C3162.62 374.85 3174.54 382.367 3187.37 391.9C3200.21 401.433 3209.92 413.35 3216.52 427.65C3223.12 441.583 3226.42 457.533 3226.42 475.5C3226.42 509.967 3214.69 537.1 3191.22 556.9C3167.76 576.7 3137.32 586.6 3099.92 586.6Z" fill="black"/>
</svg>
