<svg width="850" height="850" viewBox="0 0 850 850" fill="none" xmlns="http://www.w3.org/2000/svg">
<circle cx="425" cy="425" r="425" fill="black"/>
<path d="M800 425C800 632.107 632.107 800 425 800C217.893 800 50 632.107 50 425C50 217.893 217.893 50 425 50C632.107 50 800 217.893 800 425Z" fill="white"/>
<path fill-rule="evenodd" clip-rule="evenodd" d="M800 425C800 632.107 632.107 800 425 800C563.071 800 675 632.107 675 425C675 217.893 563.071 50 425 50C632.107 50 800 217.893 800 425Z" fill="url(#paint0_linear)"/>
<defs>
<linearGradient id="paint0_linear" x1="612.5" y1="50" x2="612.5" y2="800" gradientUnits="userSpaceOnUse">
<stop stop-color="#5200FF"/>
<stop offset="1" stop-color="#0075FF"/>
</linearGradient>
</defs>
</svg>
